# Blender v2.79 (sub 4) OBJ File: ''
# www.blender.org
mtllib untitled.mtl
o Cube
v -1.000000 0.000000 -1.000000
v -1.000000 0.544722 -1.000000
v 1.000000 0.000000 -1.000000
v 1.000000 0.544722 -1.000000
v -1.000000 0.000000 1.000000
v -1.000000 0.544722 1.000000
v 1.000000 0.000000 1.000000
v 1.000000 0.544722 1.000000
v -1.000000 0.235876 -1.000000
v 1.000000 0.235876 -1.000000
v 1.000000 0.235876 1.000000
v -1.000000 0.235876 1.000000
v -0.202483 0.235876 1.000000
v 0.321461 0.235876 -1.000000
v -1.000000 0.544722 -1.000000
v 1.000000 0.544722 -1.000000
v 1.000000 0.544722 1.000000
v -1.000000 0.544722 1.000000
v 0.000000 1.392807 -1.000000
v 0.000000 1.392807 1.000000
v 0.000000 1.392807 -1.000000
v 0.000000 1.392807 1.000000
v 0.000000 1.392807 1.000000
v -1.000000 0.235876 1.000000
v -1.000000 0.235876 1.000000
v 1.000000 0.235876 1.000000
v 1.000000 0.235876 1.000000
v 1.000000 0.544722 1.000000
v 1.000000 0.544722 1.000000
v -1.000000 0.544722 1.000000
v -1.000000 0.544722 1.000000
v -0.202483 0.235876 1.000000
v -0.613862 0.872200 1.000000
v -0.613862 0.872200 1.000000
v -0.613862 0.872200 -1.000000
v -0.613862 0.872200 -1.000000
v -0.613862 0.872200 1.000000
v -0.446617 1.014038 -1.000000
v -0.446617 1.014038 -1.000000
v -0.446617 1.014038 1.000000
v -0.446617 1.014038 1.000000
v -0.446617 1.014038 1.000000
v 1.000000 0.544722 0.100000
v -1.000000 0.544722 0.100000
v 0.000000 1.392807 0.100000
v -0.613862 0.872200 0.100000
v -0.446617 1.014038 0.100000
v -1.000000 0.544722 -0.367449
v 1.000000 0.544722 -0.367449
v 0.000000 1.392807 -0.367449
v -0.613862 0.872200 -0.367449
v -0.446617 1.014038 -0.367449
v -1.042250 0.883144 -0.369521
v -1.045399 0.873327 0.097815
v -0.884193 1.035094 -0.365264
v -0.887343 1.025277 0.102072
v -0.941017 0.873055 0.098343
v -0.938629 0.880497 -0.369020
v -0.780737 1.022559 0.101571
v -0.778350 1.030001 -0.365792
v 1.000000 0.544722 -0.306333
v 0.000000 1.392807 -0.306333
v -0.613862 0.872200 -0.306333
v -0.446617 1.014038 -0.306333
v -1.000000 0.544722 -0.306333
v -1.042661 0.881861 -0.308420
v -0.884605 1.033811 -0.304163
v -0.778662 1.029028 -0.304688
v -0.938941 0.879524 -0.307915
v 1.000000 0.544722 0.045437
v 0.000000 1.392807 0.045437
v -0.613862 0.872200 0.045437
v -0.446617 1.014038 0.045437
v -1.045032 0.874473 0.043265
v -0.886975 1.026423 0.047522
v -0.780459 1.023427 0.047018
v -1.000000 0.544722 0.045437
v -0.940738 0.873923 0.043791
v -1.046404 -0.191616 0.041434
v -1.046771 -0.192761 0.095983
v -0.942389 -0.193034 0.096512
v -1.043622 -0.182944 -0.371352
v -0.940001 -0.185592 -0.370851
v -0.940313 -0.186565 -0.309746
v -1.044033 -0.184228 -0.310251
v -0.942110 -0.192166 0.041960
v 0.170688 1.248049 -1.000000
v 0.170688 1.248049 -1.000000
v 0.170688 1.248049 1.000000
v 0.170688 1.248049 1.000000
v 0.170688 1.248049 1.000000
v 0.170688 1.248049 0.100000
v 0.170688 1.248049 -0.367449
v 0.170688 1.248049 -0.306333
v 0.170688 1.248049 0.045437
v 0.244627 1.185343 -1.000000
v 0.244627 1.185343 -1.000000
v 0.244627 1.185343 1.000000
v 0.244627 1.185343 1.000000
v 0.244627 1.185343 1.000000
v 0.244627 1.185343 0.100000
v 0.244627 1.185343 -0.367449
v 0.244627 1.185343 -0.306333
v 0.244627 1.185343 0.045437
v 1.000000 0.544722 0.674799
v 0.000000 1.392807 0.674799
v -0.613862 0.872200 0.674799
v -0.446617 1.014038 0.674799
v -1.000000 0.544722 0.674799
v 0.170688 1.248049 0.674799
v 0.244627 1.185343 0.674799
v 1.000000 0.544722 0.764645
v 0.000000 1.392807 0.764645
v -0.613862 0.872200 0.764645
v -0.446617 1.014038 0.764645
v 0.170688 1.248049 0.764645
v 0.244627 1.185343 0.764645
v -1.000000 0.544722 0.764645
v 0.138100 1.104280 0.595538
v 0.118332 1.104978 0.606564
v 0.101096 1.105686 0.621237
v 0.087056 1.106379 0.638992
v 0.076749 1.107029 0.659147
v 0.070574 1.107612 0.680927
v 0.068766 1.108104 0.703496
v 0.071396 1.108488 0.725985
v 0.078362 1.108748 0.747532
v 0.089397 1.108874 0.767308
v 0.104077 1.108861 0.784552
v 0.121837 1.108711 0.798603
v 0.141995 1.108428 0.808920
v 0.163776 1.108024 0.815106
v 0.186344 1.107514 0.816925
v 0.208830 1.106918 0.814306
v 0.230371 1.106258 0.807349
v 0.250140 1.105560 0.796323
v 0.267376 1.104851 0.781650
v 0.281416 1.104159 0.763895
v 0.291722 1.103508 0.743740
v 0.297898 1.102926 0.721960
v 0.299706 1.102433 0.699391
v 0.297076 1.102050 0.676901
v 0.290109 1.101790 0.655354
v 0.279074 1.101664 0.635579
v 0.264395 1.101676 0.618334
v 0.246635 1.101827 0.604284
v 0.226477 1.102110 0.593967
v 0.204696 1.102514 0.587780
v 0.182128 1.103024 0.585962
v 0.159642 1.103620 0.588581
v 0.155394 1.818803 0.581331
v 0.135626 1.819501 0.592357
v 0.118390 1.820210 0.607030
v 0.104349 1.820903 0.624785
v 0.094043 1.821553 0.644940
v 0.087868 1.822135 0.666720
v 0.086060 1.822628 0.689289
v 0.088690 1.823011 0.711779
v 0.095656 1.823271 0.733325
v 0.106691 1.823398 0.753101
v 0.121371 1.823385 0.770345
v 0.139131 1.823235 0.784396
v 0.159289 1.822952 0.794713
v 0.181070 1.822548 0.800900
v 0.203637 1.822037 0.802718
v 0.226124 1.821441 0.800099
v 0.247665 1.820782 0.793142
v 0.267434 1.820084 0.782116
v 0.284669 1.819375 0.767443
v 0.298710 1.818682 0.749688
v 0.309016 1.818032 0.729533
v 0.315192 1.817450 0.707753
v 0.316999 1.816957 0.685184
v 0.314370 1.816573 0.662694
v 0.307403 1.816314 0.641148
v 0.296368 1.816188 0.621372
v 0.281689 1.816200 0.604127
v 0.263929 1.816350 0.590077
v 0.243771 1.816633 0.579760
v 0.221990 1.817037 0.573573
v 0.199422 1.817547 0.571755
v 0.176936 1.818144 0.574374
v 0.184236 1.105269 0.701443
v 0.201530 1.819793 0.687237
vn 0.0000 0.0000 1.0000
vn 0.0000 -1.0000 0.0000
vn -0.6468 0.7627 0.0000
vn 0.0000 0.0000 -1.0000
vn 0.6468 0.7627 0.0000
vn -1.0000 0.0000 0.0000
vn 1.0000 0.0000 0.0000
vn 1.0000 -0.0013 0.0051
vn -0.6932 0.7207 0.0105
vn -0.0005 -0.0243 0.9997
vn 0.0467 0.9987 0.0187
vn 0.0008 0.0240 -0.9997
vn 0.0003 0.0108 -0.9999
vn 0.0466 0.9989 0.0081
vn -0.0003 -0.0108 0.9999
vn -0.0039 -1.0000 -0.0080
vn -0.0240 -0.9997 -0.0080
vn 0.0366 0.9993 0.0080
vn 0.0367 0.9992 0.0187
vn -0.0051 -0.0017 1.0000
vn 0.0269 0.9995 0.0186
vn 0.0268 0.9996 0.0080
vn -0.0138 -0.9999 -0.0080
vn -0.0138 -0.9997 -0.0185
vn -0.0038 -0.9998 -0.0185
vn -0.0239 -0.9995 -0.0186
vn -1.0000 0.0013 -0.0067
vn -0.0049 -0.0017 1.0000
vn 0.0049 0.0017 -1.0000
vn 0.0050 0.0017 -1.0000
vn -0.4873 -0.0056 -0.8732
vn -0.6482 0.0005 -0.7615
vn -0.7842 0.0066 -0.6204
vn -0.8901 0.0125 -0.4556
vn -0.9618 0.0178 -0.2732
vn -0.9965 0.0225 -0.0803
vn -0.9929 0.0263 0.1157
vn -0.9512 0.0291 0.3072
vn -0.8729 0.0308 0.4869
vn -0.7611 0.0313 0.6479
vn -0.6200 0.0306 0.7840
vn -0.4551 0.0287 0.8900
vn -0.2727 0.0257 0.9618
vn -0.0798 0.0217 0.9966
vn 0.1161 0.0169 0.9931
vn 0.3076 0.0115 0.9514
vn 0.4873 0.0056 0.8732
vn 0.6482 -0.0005 0.7615
vn 0.7842 -0.0066 0.6204
vn 0.8901 -0.0125 0.4556
vn 0.9618 -0.0178 0.2732
vn 0.9965 -0.0225 0.0803
vn 0.9929 -0.0263 -0.1157
vn 0.9512 -0.0291 -0.3072
vn 0.8729 -0.0308 -0.4869
vn 0.7611 -0.0313 -0.6479
vn 0.6200 -0.0306 -0.7840
vn 0.4551 -0.0287 -0.8900
vn 0.2727 -0.0257 -0.9618
vn 0.0798 -0.0217 -0.9966
vn -0.1161 -0.0169 -0.9931
vn -0.3076 -0.0115 -0.9514
vn -0.0242 -0.9995 0.0199
vn 0.0242 0.9995 -0.0199
usemtl None
s off
f 97//1 96//1 4//1 16//1
f 29//1 28//1 17//1
f 34//1 37//1 30//1 18//1
f 18//1 30//1 31//1
f 3//2 7//2 5//2 1//2
f 51//3 35//3 2//3 48//3
f 24//1 12//1 25//1
f 26//1 11//1 13//1 12//1 24//1 32//1
f 26//1 27//1 11//1
f 1//4 9//4 14//4 10//4 3//4
f 12//1 18//1 31//1 25//1
f 9//4 15//4 36//4 39//4 21//4 88//4 97//4 16//4 10//4 14//4
f 27//1 29//1 17//1 11//1
f 11//1 17//1 100//1 90//1 22//1 42//1 34//1 18//1 12//1 13//1
f 93//5 87//5 19//5 50//5
f 90//1 91//1 23//1 22//1
f 39//1 38//1 19//1 21//1
f 37//1 33//1 6//1 30//1
f 5//6 24//6 25//6 9//6 1//6
f 3//7 10//7 27//7 26//7 7//7
f 7//1 26//1 32//1 24//1 5//1
f 10//7 16//7 29//7 27//7
f 16//2 4//2 49//2 61//2 70//2 43//2 105//2 112//2 8//2 28//2 29//2
f 91//1 89//1 20//1 23//1
f 30//1 6//1 118//1 109//1 44//1 77//1 65//1 48//1 2//1 15//1 31//1
f 25//6 31//6 15//6 9//6
f 40//1 41//1 33//1 37//1
f 15//1 2//1 35//1 36//1
f 52//3 38//3 35//3 51//3
f 42//1 40//1 37//1 34//1
f 22//1 23//1 40//1 42//1
f 50//3 19//3 38//3 52//3
f 23//1 20//1 41//1 40//1
f 36//1 35//1 38//1 39//1
f 106//3 45//3 47//3 108//3
f 108//3 47//3 46//3 107//3
f 110//5 92//5 45//5 106//5
f 107//3 46//3 44//3 109//3
f 62//3 50//3 52//3 64//3
f 58//8 69//8 84//8 83//8
f 94//5 93//5 50//5 62//5
f 63//3 51//3 48//3 65//3
f 67//9 55//9 53//9 66//9
f 57//10 59//10 56//10 54//10
f 68//11 60//11 55//11 67//11
f 60//12 58//12 53//12 55//12
f 52//13 51//13 58//13 60//13
f 64//14 52//14 60//14 68//14
f 46//15 47//15 59//15 57//15
f 72//16 46//16 57//16 78//16
f 51//17 63//17 69//17 58//17
f 73//18 64//18 68//18 76//18
f 76//19 68//19 67//19 75//19
f 75//9 67//9 66//9 74//9
f 72//3 63//3 65//3 77//3
f 95//5 94//5 62//5 71//5
f 57//20 54//20 80//20 81//20
f 71//3 62//3 64//3 73//3
f 45//3 71//3 73//3 47//3
f 92//5 95//5 71//5 45//5
f 46//3 72//3 77//3 44//3
f 56//9 75//9 74//9 54//9
f 59//21 76//21 75//21 56//21
f 47//22 73//22 76//22 59//22
f 63//23 72//23 78//23 69//23
f 69//24 78//24 74//24 66//24
f 86//25 81//25 80//25 79//25
f 83//26 84//26 85//26 82//26
f 54//27 74//27 79//27 80//27
f 69//28 66//28 85//28 84//28
f 53//29 58//29 83//29 82//29
f 74//30 78//30 86//30 79//30
f 66//27 53//27 82//27 85//27
f 78//8 57//8 81//8 86//8
f 101//5 104//5 95//5 92//5
f 104//5 103//5 94//5 95//5
f 103//5 102//5 93//5 94//5
f 111//5 101//5 92//5 110//5
f 98//1 99//1 89//1 91//1
f 100//1 98//1 91//1 90//1
f 102//5 96//5 87//5 93//5
f 21//1 19//1 87//1 88//1
f 49//5 4//5 96//5 102//5
f 17//4 28//4 98//4 100//4
f 28//1 8//1 99//1 98//1
f 105//5 43//5 101//5 111//5
f 61//5 49//5 102//5 103//5
f 70//5 61//5 103//5 104//5
f 43//5 70//5 104//5 101//5
f 88//4 87//4 96//4 97//4
f 112//5 105//5 111//5 117//5
f 117//5 111//5 110//5 116//5
f 114//3 107//3 109//3 118//3
f 116//5 110//5 106//5 113//5
f 115//3 108//3 107//3 114//3
f 113//3 106//3 108//3 115//3
f 20//3 113//3 115//3 41//3
f 41//3 115//3 114//3 33//3
f 89//5 116//5 113//5 20//5
f 33//3 114//3 118//3 6//3
f 99//5 117//5 116//5 89//5
f 8//5 112//5 117//5 99//5
f 119//31 120//31 152//31 151//31
f 120//32 121//32 153//32 152//32
f 121//33 122//33 154//33 153//33
f 122//34 123//34 155//34 154//34
f 123//35 124//35 156//35 155//35
f 124//36 125//36 157//36 156//36
f 125//37 126//37 158//37 157//37
f 126//38 127//38 159//38 158//38
f 127//39 128//39 160//39 159//39
f 128//40 129//40 161//40 160//40
f 129//41 130//41 162//41 161//41
f 130//42 131//42 163//42 162//42
f 131//43 132//43 164//43 163//43
f 132//44 133//44 165//44 164//44
f 133//45 134//45 166//45 165//45
f 134//46 135//46 167//46 166//46
f 135//47 136//47 168//47 167//47
f 136//48 137//48 169//48 168//48
f 137//49 138//49 170//49 169//49
f 138//50 139//50 171//50 170//50
f 139//51 140//51 172//51 171//51
f 140//52 141//52 173//52 172//52
f 141//53 142//53 174//53 173//53
f 142//54 143//54 175//54 174//54
f 143//55 144//55 176//55 175//55
f 144//56 145//56 177//56 176//56
f 145//57 146//57 178//57 177//57
f 146//58 147//58 179//58 178//58
f 147//59 148//59 180//59 179//59
f 148//60 149//60 181//60 180//60
f 149//61 150//61 182//61 181//61
f 150//62 119//62 151//62 182//62
f 119//63 183//63 120//63
f 151//64 152//64 184//64
f 120//63 183//63 121//63
f 152//64 153//64 184//64
f 121//63 183//63 122//63
f 153//64 154//64 184//64
f 122//63 183//63 123//63
f 154//64 155//64 184//64
f 123//63 183//63 124//63
f 155//64 156//64 184//64
f 124//63 183//63 125//63
f 156//64 157//64 184//64
f 125//63 183//63 126//63
f 157//64 158//64 184//64
f 126//63 183//63 127//63
f 158//64 159//64 184//64
f 127//63 183//63 128//63
f 159//64 160//64 184//64
f 128//63 183//63 129//63
f 160//64 161//64 184//64
f 129//63 183//63 130//63
f 161//64 162//64 184//64
f 130//63 183//63 131//63
f 162//64 163//64 184//64
f 131//63 183//63 132//63
f 163//64 164//64 184//64
f 132//63 183//63 133//63
f 164//64 165//64 184//64
f 133//63 183//63 134//63
f 165//64 166//64 184//64
f 134//63 183//63 135//63
f 166//64 167//64 184//64
f 135//63 183//63 136//63
f 167//64 168//64 184//64
f 136//63 183//63 137//63
f 168//64 169//64 184//64
f 137//63 183//63 138//63
f 169//64 170//64 184//64
f 138//63 183//63 139//63
f 170//64 171//64 184//64
f 139//63 183//63 140//63
f 171//64 172//64 184//64
f 140//63 183//63 141//63
f 172//64 173//64 184//64
f 141//63 183//63 142//63
f 173//64 174//64 184//64
f 142//63 183//63 143//63
f 174//64 175//64 184//64
f 143//63 183//63 144//63
f 175//64 176//64 184//64
f 144//63 183//63 145//63
f 176//64 177//64 184//64
f 145//63 183//63 146//63
f 177//64 178//64 184//64
f 146//63 183//63 147//63
f 178//64 179//64 184//64
f 147//63 183//63 148//63
f 179//64 180//64 184//64
f 148//63 183//63 149//63
f 180//64 181//64 184//64
f 149//63 183//63 150//63
f 181//64 182//64 184//64
f 150//63 183//63 119//63
f 182//64 151//64 184//64
